<svg width="41" height="41" viewBox="0 0 41 41" fill="none" xmlns="http://www.w3.org/2000/svg">
<g clip-path="url(#clip0_365_23)">
<mask id="mask0_365_23" style="mask-type:luminance" maskUnits="userSpaceOnUse" x="0" y="10" width="41" height="21">
<path d="M0 10.9331H40.4533V30.6131H0V10.9331Z" fill="white"/>
</mask>
<g mask="url(#mask0_365_23)">
<mask id="mask1_365_23" style="mask-type:luminance" maskUnits="userSpaceOnUse" x="-1" y="7" width="43" height="27">
<path d="M-0.538086 12.7099L39.2917 7.43115L41.9866 27.7518L2.15681 33.0305L-0.538086 12.7099Z" fill="white"/>
</mask>
<g mask="url(#mask1_365_23)">
<mask id="mask2_365_23" style="mask-type:luminance" maskUnits="userSpaceOnUse" x="-1" y="7" width="43" height="27">
<path d="M-0.538086 12.7099L39.2917 7.43115L41.9866 27.7518L2.15681 33.0305L-0.538086 12.7099Z" fill="white"/>
</mask>
<g mask="url(#mask2_365_23)">
<path d="M21.461 23.4641C20.2908 23.4342 19.1163 23.3445 17.9461 23.3146C17.8265 23.3317 17.7155 23.4086 17.677 23.5965C17.6557 23.9083 17.5745 24.2243 17.6172 24.5275C17.6471 25.6892 17.6856 26.9107 17.7795 28.0638C17.7838 28.5507 17.8393 28.9735 17.6471 29.3664C17.4592 29.8234 17.1902 30.101 16.6478 30.1736C16.1652 30.2376 15.7637 29.9857 15.5288 29.5885C15.2256 29.1358 15.153 28.5934 15.1402 28.0424C15.0846 26.7014 15.0889 25.3518 15.0249 23.951C14.995 22.7893 15.1829 22.8235 13.9144 22.5032C13.6582 22.4135 13.4105 22.3836 13.1542 22.2939C11.4971 21.8412 11.7833 21.6789 11.1555 23.4214C10.6985 24.5831 10.3739 25.8558 10.1049 27.0559C9.99808 27.6196 9.8187 28.1364 9.44714 28.5549C8.91329 29.1742 8.16589 29.0888 7.7687 28.4055C7.53381 28.0083 7.47829 27.5855 7.53381 27.09C7.61068 26.2828 7.80714 25.4586 8.01214 24.6941C8.36235 23.605 8.71256 22.5758 9.0585 21.4867C9.18662 21.0425 9.17808 20.9827 8.71683 20.735C8.19579 20.5001 7.67047 20.261 7.14089 19.9663C5.94506 19.2659 6.12016 19.1805 5.37277 20.5044C4.73641 21.696 4.09579 22.8833 3.19037 23.9211C2.9811 24.1944 2.71204 24.4763 2.3661 24.6471C1.72974 24.9162 1.13183 24.566 1.10193 23.8912C1.11474 23.5239 1.18735 23.1438 1.26849 22.8277C1.52474 21.9949 1.92193 21.2689 2.3661 20.4745C2.85724 19.552 3.34839 18.6252 3.89933 17.6942C3.34412 17.2159 2.85724 16.7888 2.3661 16.3019C2.01589 15.9816 1.65714 15.6015 1.3112 15.2769C0.88412 14.8456 0.683391 14.2562 0.785891 13.6284C0.914017 12.7528 1.60589 12.4154 2.34047 12.8724C2.6736 13.0732 3.01527 13.3337 3.29287 13.6027C3.71141 13.9786 4.19829 14.4057 4.61683 14.7772C6.58141 16.6649 8.84495 18.0188 11.416 18.9071C13.0261 19.4922 14.6106 19.8937 16.2591 20.2909C19.7228 20.9956 23.1821 20.7222 26.5262 19.6033C30.4596 18.2836 33.8507 16.1183 36.5541 12.9365C36.8787 12.5863 37.1905 12.1763 37.5791 11.8816C37.8482 11.5997 38.1856 11.3691 38.6084 11.3136C39.3259 11.1598 39.7402 11.5314 39.7786 12.266C39.7743 12.6931 39.7017 13.0732 39.4369 13.4148C39.185 13.8163 38.9244 14.1579 38.6639 14.4953C37.9678 15.2641 37.2118 16.0371 36.5071 16.7461C36.2381 17.0279 35.9562 17.186 35.8238 17.5746C36.4901 18.4672 37.3442 19.3342 38.1856 20.1414C38.6041 20.5172 39.0141 20.829 39.3771 21.2732C39.9452 21.8711 39.9921 22.6655 39.5651 23.1481C39.138 23.6349 38.4077 23.6691 37.7329 23.2078C36.4388 22.2127 35.2472 21.0852 34.218 19.8083C34.0642 19.5862 33.9147 19.3598 33.7012 19.142C32.5011 19.7912 31.3053 20.5044 30.1052 21.1536C30.4297 22.2127 30.9721 23.0626 31.5743 23.904C31.8092 24.3012 32.0399 24.6386 32.2747 25.0358C32.4413 25.3817 32.4328 25.7533 32.2918 26.0778C32.1039 26.5306 31.5957 26.8423 31.0875 26.727C30.5237 26.616 30.1052 26.2444 29.8019 25.7917C29.0631 24.8478 28.5036 23.8784 27.9911 22.7808C27.6452 22.0291 27.5854 22.0376 26.7568 22.2725C26.0521 22.4861 25.2749 22.6526 24.5104 22.8747C24.0961 22.99 23.9893 23.1267 24.1089 23.541C24.4549 24.7838 24.8563 25.9583 25.2663 27.1925C25.3902 27.6666 25.514 28.1407 25.5781 28.6233C25.6592 29.2255 25.3005 29.7636 24.7666 29.896C24.237 30.0882 23.716 29.8533 23.3444 29.3493C23.0455 28.9564 22.9216 28.4823 22.7892 27.9485C22.3664 26.5946 21.7429 25.1425 21.461 23.4641Z" fill="url(#paint0_linear_365_23)"/>
</g>
</g>
</g>
</g>
<defs>
<linearGradient id="paint0_linear_365_23" x1="20.3045" y1="11.2793" x2="20.3045" y2="30.1835" gradientUnits="userSpaceOnUse">
<stop stop-color="#F467EC"/>
<stop offset="1" stop-color="#38B6FF"/>
</linearGradient>
<clipPath id="clip0_365_23">
<rect width="41" height="41" fill="white"/>
</clipPath>
</defs>
</svg>
