<?xml version="1.0" encoding="utf-8"?>
<!-- Generator: Adobe Illustrator 24.3.0, SVG Export Plug-In . SVG Version: 6.00 Build 0)  -->
<svg version="1.1" id="Layer_1" xmlns="http://www.w3.org/2000/svg" xmlns:xlink="http://www.w3.org/1999/xlink" x="0px" y="0px"
	 viewBox="0 0 29 24.6" style="enable-background:new 0 0 29 24.6;" xml:space="preserve">
<style type="text/css">
	.st0{fill:#FFFFFF;}
</style>
<path class="st0" d="M13.5,12.1V8.7c-1.8,0.5-3.1,2.1-3.1,4c0,0.5,0.1,0.9,0.2,1.3L13.5,12.1z"/>
<path class="st0" d="M15.6,14.5v2c0.6-0.2,1.2-0.5,1.7-0.9L15.6,14.5z"/>
<path class="st0" d="M8.1,24.5l-0.3-0.2c-0.2-0.1-0.2-0.3-0.1-0.4L18.8,0.7c0.1-0.2,0.3-0.2,0.4-0.1l0.3,0.2
	c0.2,0.1,0.2,0.3,0.1,0.4L8.5,24.3C8.4,24.5,8.2,24.5,8.1,24.5z"/>
<g>
	<path class="st0" d="M9.7,21.8c-1.6-0.7-3-1.6-4.4-2.8c-2.2-1.9-3.5-3.7-3.6-3.8l-0.4-0.6l0.4-0.6c0.1-0.1,1.4-1.9,3.6-3.8
		c2.6-2.2,5.8-3.8,9.2-3.8c0.8,0,1.7,0.1,2.5,0.3l0.3-0.7c-0.9-0.2-1.9-0.4-2.8-0.4c-3.2,0-6.6,1.4-9.7,4c-2.3,1.9-3.7,3.8-3.7,3.9
		l-0.4,0.6c-0.2,0.3-0.2,0.6,0,0.9l0.4,0.6c0.1,0.1,1.4,2,3.7,3.9c1.5,1.2,3,2.2,4.5,2.9L9.7,21.8z"/>
	<path class="st0" d="M28.4,14.2L28,13.6c0,0-1.4-2-3.7-3.9c-1.9-1.6-3.9-2.7-5.9-3.4L18,7.1c2.1,0.7,4.1,1.8,5.8,3.3
		c2.2,1.8,3.5,3.7,3.6,3.8l0.4,0.6l-0.4,0.6c-0.1,0.1-1.4,1.9-3.6,3.8c-2.6,2.2-5.8,3.8-9.2,3.8c-1.3,0-2.6-0.3-3.9-0.7l-0.3,0.7
		c1.4,0.5,2.8,0.8,4.2,0.8c3.2,0,6.6-1.4,9.7-4c2.3-2,3.7-3.9,3.7-3.9l0.4-0.6C28.6,14.9,28.6,14.5,28.4,14.2z"/>
</g>
<g>
	<path class="st0" d="M11.6,18c-1.9-1-3.2-3.1-3.2-5.4c0-0.8,0.2-1.6,0.4-2.3c-0.8,0.5-1.5,1-2.1,1.5c-1.3,1.1-2.3,2.2-2.8,2.8
		c0.5,0.6,1.5,1.7,2.8,2.8c1,0.8,2.4,1.8,3.9,2.4L11.6,18z"/>
	<path class="st0" d="M22.4,11.9c-0.6-0.5-1.3-1-2.1-1.5c0.3,0.7,0.4,1.5,0.4,2.3c0,3.4-2.8,6.1-6.2,6.1c-0.7,0-1.4-0.1-2.1-0.4
		l-0.9,1.9c0.9,0.3,1.9,0.5,3,0.5c3.2,0,6-1.8,7.8-3.3c1.3-1.1,2.3-2.2,2.8-2.8C24.6,14,23.7,12.9,22.4,11.9z"/>
</g>
<g>
	<path class="st0" d="M13.4,16.5c0,0,0.1,0,0.1,0.1v-0.3L13.4,16.5z"/>
	<path class="st0" d="M13.1,14.8l-1.3,0.9c0.2,0.2,0.4,0.3,0.7,0.5L13.1,14.8z"/>
</g>
<g>
	<path class="st0" d="M16,8.8c-0.1-0.1-0.3-0.1-0.4-0.1v1L16,8.8z"/>
	<path class="st0" d="M16.9,9.3L15.6,12v0.1l2.9,1.9c0.2-0.4,0.2-0.9,0.2-1.3C18.7,11.2,18,10,16.9,9.3z"/>
</g>
<g>
	<path class="st0" d="M17.6,5.6l0.4-0.7c-1.1-0.3-2.2-0.4-3.4-0.4c-4.9,0-9.1,2.8-11.7,5.1L1.5,8C4.4,5.5,9,2.4,14.5,2.4
		c1.5,0,2.9,0.2,4.3,0.6l0.3-0.7c-1.5-0.4-3-0.7-4.6-0.7C8.7,1.6,3.9,4.8,0.9,7.4C0.8,7.6,0.7,7.8,0.7,8c0,0.2,0.1,0.4,0.2,0.6
		l1.4,1.5c0.2,0.2,0.4,0.3,0.6,0.3c0.2,0,0.4-0.1,0.5-0.2c2.5-2.2,6.5-4.9,11.2-4.9C15.6,5.2,16.6,5.4,17.6,5.6z"/>
	<path class="st0" d="M28.1,7.4c-2-1.7-4.7-3.7-8-4.8l-0.3,0.7c3.2,1.1,5.9,3,7.8,4.7l-1.4,1.5c-1.8-1.6-4.3-3.4-7.3-4.4l-0.3,0.7
		c2.9,0.9,5.4,2.7,7.2,4.2c0.2,0.1,0.3,0.2,0.5,0.2c0.2,0,0.4-0.1,0.6-0.3l1.4-1.5c0.1-0.2,0.2-0.4,0.2-0.6
		C28.4,7.8,28.3,7.6,28.1,7.4z"/>
</g>
</svg>
