<svg width="29" height="23" viewBox="0 0 29 23" fill="none" xmlns="http://www.w3.org/2000/svg">
<mask id="mask0_2_65717" style="mask-type:luminance" maskUnits="userSpaceOnUse" x="0" y="0" width="29" height="10">
<path d="M0.53833 0.015625H28.4133V9.33333H0.53833V0.015625Z" fill="white"/>
</mask>
<g mask="url(#mask0_2_65717)">
<path d="M14.5383 0.796875C20.0904 0.796875 24.7101 3.83854 27.606 6.38542L26.231 7.91146C23.606 5.59896 19.4445 2.83854 14.5383 2.83854C9.63202 2.83854 5.47057 5.59896 2.84036 7.91146L1.47057 6.38542C4.3664 3.83854 8.98098 0.796875 14.5383 0.796875ZM2.24661 8.43229C2.40807 8.60938 2.62161 8.69792 2.84036 8.69792C3.02786 8.69792 3.21536 8.63021 3.3664 8.5C5.89244 6.27604 9.88202 3.625 14.5383 3.625C19.1945 3.625 23.1841 6.27604 25.7049 8.5C25.856 8.63021 26.0435 8.69792 26.231 8.69792C26.4497 8.69792 26.6685 8.60938 26.8247 8.43229L28.1945 6.90625C28.3351 6.75 28.4081 6.54688 28.3976 6.33854C28.382 6.13021 28.2883 5.9375 28.132 5.79688C25.132 3.16146 20.3404 0.015625 14.5383 0.015625C8.73619 0.015625 3.94452 3.16146 0.944525 5.79688C0.788274 5.9375 0.689316 6.13021 0.6789 6.33854C0.668482 6.54688 0.736192 6.75 0.876816 6.90625L2.24661 8.43229Z" fill="white"/>
</g>
<path d="M18.6633 11.0105C18.6633 9.11467 17.3456 7.5105 15.5696 7.05737V10.4688L18.4342 12.3595C18.5852 11.9376 18.6633 11.4845 18.6633 11.0105Z" fill="white"/>
<path d="M13.507 10.4688V7.05737C11.7258 7.5105 10.4081 9.11467 10.4081 11.0105C10.4081 11.4845 10.4914 11.9376 10.6425 12.3595L13.507 10.4688Z" fill="white"/>
<path d="M13.5071 12.9219L11.7883 14.0573C12.2727 14.4844 12.856 14.8021 13.5071 14.9688V12.9219Z" fill="white"/>
<path d="M22.3612 10.2292C21.7727 9.73442 21.0696 9.20837 20.2831 8.724C20.5696 9.43233 20.731 10.2032 20.731 11.0105C20.731 14.3907 17.9498 17.1407 14.5383 17.1407C11.1217 17.1407 8.34562 14.3907 8.34562 11.0105C8.34562 10.2032 8.50708 9.43233 8.79354 8.724C8.00708 9.20837 7.30396 9.73442 6.71541 10.2292C5.41854 11.3125 4.42896 12.4063 3.89771 13.0573C4.42896 13.7032 5.41854 14.8021 6.71541 15.8855C8.5175 17.3907 11.3352 19.1875 14.5383 19.1875C17.7415 19.1875 20.5592 17.3907 22.3612 15.8855C23.6581 14.8021 24.6425 13.7032 25.179 13.0573C24.6425 12.4063 23.6581 11.3125 22.3612 10.2292Z" fill="white"/>
<mask id="mask1_2_65717" style="mask-type:luminance" maskUnits="userSpaceOnUse" x="0" y="4" width="29" height="19">
<path d="M0.53833 4.0625H28.5383V22.0104H0.53833V4.0625Z" fill="white"/>
</mask>
<g mask="url(#mask1_2_65717)">
<path d="M27.3247 13.6459C27.2726 13.724 25.9393 15.5573 23.7362 17.4115C21.1268 19.599 17.9705 21.2292 14.5382 21.2292C11.106 21.2292 7.9445 19.599 5.34033 17.4115C3.13721 15.5573 1.80387 13.724 1.75179 13.6459L1.32992 13.0573L1.75179 12.4688C1.80387 12.3907 3.13721 10.5521 5.34033 8.70317C7.93929 6.51567 11.1007 4.88546 14.5382 4.88546C17.9757 4.88546 21.132 6.51567 23.7362 8.70317C25.9393 10.5521 27.2726 12.3907 27.3247 12.4688L27.7466 13.0573L27.3247 13.6459ZM28.3924 12.6042L27.9757 12.0157C27.9601 11.9948 26.5747 10.0573 24.2466 8.10421C21.1268 5.48442 17.7726 4.099 14.5382 4.099C11.3039 4.099 7.9445 5.48442 4.82992 8.10421C2.53304 10.0313 1.15804 11.9323 1.10075 12.0157L0.684082 12.6042C0.491374 12.875 0.491374 13.2344 0.684082 13.5105L1.10075 14.099C1.15804 14.1771 2.53304 16.0782 4.82992 18.0105C7.9445 20.6302 11.3039 22.0105 14.5382 22.0105C17.7726 22.0105 21.1268 20.6302 24.2466 18.0105C26.5747 16.0521 27.9601 14.1146 27.9705 14.099L28.3924 13.5105C28.5851 13.2344 28.5851 12.875 28.3924 12.6042Z" fill="white"/>
</g>
<path d="M15.5696 12.9219V14.9688C16.2154 14.8021 16.804 14.4844 17.2883 14.0573L15.5696 12.9219Z" fill="white"/>
</svg>
