<svg width="47" height="46" viewBox="0 0 47 46" fill="none" xmlns="http://www.w3.org/2000/svg">
<path d="M2.69792 8.96354H8.47396V5.1875H2.69792C2.48438 5.1875 2.3125 5.35937 2.3125 5.5625V8.58854C2.3125 8.79688 2.48438 8.96354 2.69792 8.96354Z" fill="#38B6FF"/>
<mask id="mask0_17_421" style="mask-type:luminance" maskUnits="userSpaceOnUse" x="1" y="42" width="5" height="4">
<path d="M1.69287 42.2083H5.69287V45.9999H1.69287V42.2083Z" fill="white"/>
</mask>
<g mask="url(#mask0_17_421)">
<path d="M2.3125 45.151C2.3125 45.6197 2.69792 45.9999 3.17708 45.9999H4.53125C5.01042 45.9999 5.39583 45.6197 5.39583 45.151V42.9739H2.3125V45.151Z" fill="#38B6FF"/>
</g>
<path d="M9.24487 5.1875H13.099V8.96354H9.24487V5.1875Z" fill="#38B6FF"/>
<path d="M3.85417 22.1927V18.4115C3.85417 18.2032 3.68229 18.0365 3.46875 18.0365H2.69792C2.48438 18.0365 2.3125 18.2032 2.3125 18.4115V22.1927C2.3125 22.4011 2.48438 22.5677 2.69792 22.5677H3.46875C3.68229 22.5677 3.85417 22.4011 3.85417 22.1927Z" fill="#38B6FF"/>
<path d="M2.3125 30.5052V34.2865C2.3125 34.4948 2.48438 34.6615 2.69792 34.6615H3.46875C3.68229 34.6615 3.85417 34.4948 3.85417 34.2865V30.5052C3.85417 30.2969 3.68229 30.1302 3.46875 30.1302H2.69792C2.48438 30.1302 2.3125 30.2969 2.3125 30.5052Z" fill="#38B6FF"/>
<path d="M20.0313 8.58854V5.5625C20.0313 5.35937 19.8595 5.1875 19.6459 5.1875H13.8699V8.96354H19.6459C19.8595 8.96354 20.0313 8.79688 20.0313 8.58854Z" fill="#38B6FF"/>
<mask id="mask1_17_421" style="mask-type:luminance" maskUnits="userSpaceOnUse" x="40" y="42" width="6" height="4">
<path d="M40.3594 42.2083H45.6927V45.9999H40.3594V42.2083Z" fill="white"/>
</mask>
<g mask="url(#mask1_17_421)">
<path d="M41.6042 45.151C41.6042 45.6197 41.9897 45.9999 42.4636 45.9999H43.823C44.297 45.9999 44.6824 45.6197 44.6824 45.151V42.9739H41.6042V45.151Z" fill="#38B6FF"/>
</g>
<mask id="mask2_17_421" style="mask-type:luminance" maskUnits="userSpaceOnUse" x="0" y="8" width="47" height="36">
<path d="M0 8.875H47V43.5417H0V8.875Z" fill="white"/>
</mask>
<g mask="url(#mask2_17_421)">
<path d="M44.6823 13.8801V38.0624C44.6823 39.1041 43.8229 39.953 42.7604 39.953H5.01042C3.94792 39.953 3.08333 39.1041 3.08333 38.0624V35.4166H2.69792C2.0625 35.4166 1.54167 34.9114 1.54167 34.2864V30.5051C1.54167 29.8801 2.0625 29.3697 2.69792 29.3697H3.08333V23.328H2.69792C2.0625 23.328 1.54167 22.8176 1.54167 22.1926V18.4114C1.54167 17.7864 2.0625 17.2812 2.69792 17.2812H3.08333V13.8801C3.08333 12.8385 3.94792 11.9895 5.01042 11.9895H34.8021L33.724 11.401C33.3542 11.203 33.1302 10.8228 33.1302 10.4114V9.72388H1.15625C0.520834 9.72388 0 10.2291 0 10.8541V41.0885C0 41.7135 0.520834 42.2187 1.15625 42.2187H45.8385C46.4792 42.2187 46.9948 41.7135 46.9948 41.0885V11.4999L44.401 12.9114C44.5781 13.203 44.6823 13.5312 44.6823 13.8801Z" fill="#38B6FF"/>
</g>
<path d="M37.7501 19.5469H26.9636V33.151H37.7501V19.5469ZM29.6615 30.1302H28.8907C28.6772 30.1302 28.5053 29.9583 28.5053 29.75C28.5053 29.5417 28.6772 29.3698 28.8907 29.3698H29.6615C29.8751 29.3698 30.047 29.5417 30.047 29.75C30.047 29.9583 29.8751 30.1302 29.6615 30.1302ZM29.6615 27.8594H28.8907C28.6772 27.8594 28.5053 27.6927 28.5053 27.4844C28.5053 27.276 28.6772 27.1042 28.8907 27.1042H29.6615C29.8751 27.1042 30.047 27.276 30.047 27.4844C30.047 27.6927 29.8751 27.8594 29.6615 27.8594ZM29.6615 25.5938H28.8907C28.6772 25.5938 28.5053 25.4219 28.5053 25.2135C28.5053 25.0052 28.6772 24.8385 28.8907 24.8385H29.6615C29.8751 24.8385 30.047 25.0052 30.047 25.2135C30.047 25.4219 29.8751 25.5938 29.6615 25.5938ZM29.6615 23.3281H28.8907C28.6772 23.3281 28.5053 23.1562 28.5053 22.9479C28.5053 22.7396 28.6772 22.5677 28.8907 22.5677H29.6615C29.8751 22.5677 30.047 22.7396 30.047 22.9479C30.047 23.1562 29.8751 23.3281 29.6615 23.3281ZM32.7449 30.1302H31.974C31.7605 30.1302 31.5886 29.9583 31.5886 29.75C31.5886 29.5417 31.7605 29.3698 31.974 29.3698H32.7449C32.9584 29.3698 33.1303 29.5417 33.1303 29.75C33.1303 29.9583 32.9584 30.1302 32.7449 30.1302ZM32.7449 27.8594H31.974C31.7605 27.8594 31.5886 27.6927 31.5886 27.4844C31.5886 27.276 31.7605 27.1042 31.974 27.1042H32.7449C32.9584 27.1042 33.1303 27.276 33.1303 27.4844C33.1303 27.6927 32.9584 27.8594 32.7449 27.8594ZM32.7449 25.5938H31.974C31.7605 25.5938 31.5886 25.4219 31.5886 25.2135C31.5886 25.0052 31.7605 24.8385 31.974 24.8385H32.7449C32.9584 24.8385 33.1303 25.0052 33.1303 25.2135C33.1303 25.4219 32.9584 25.5938 32.7449 25.5938ZM32.7449 23.3281H31.974C31.7605 23.3281 31.5886 23.1562 31.5886 22.9479C31.5886 22.7396 31.7605 22.5677 31.974 22.5677H32.7449C32.9584 22.5677 33.1303 22.7396 33.1303 22.9479C33.1303 23.1562 32.9584 23.3281 32.7449 23.3281ZM35.823 30.1302H35.0574C34.8438 30.1302 34.672 29.9583 34.672 29.75C34.672 29.5417 34.8438 29.3698 35.0574 29.3698H35.823C36.0365 29.3698 36.2084 29.5417 36.2084 29.75C36.2084 29.9583 36.0365 30.1302 35.823 30.1302ZM35.823 27.8594H35.0574C34.8438 27.8594 34.672 27.6927 34.672 27.4844C34.672 27.276 34.8438 27.1042 35.0574 27.1042H35.823C36.0365 27.1042 36.2084 27.276 36.2084 27.4844C36.2084 27.6927 36.0365 27.8594 35.823 27.8594ZM35.823 25.5938H35.0574C34.8438 25.5938 34.672 25.4219 34.672 25.2135C34.672 25.0052 34.8438 24.8385 35.0574 24.8385H35.823C36.0365 24.8385 36.2084 25.0052 36.2084 25.2135C36.2084 25.4219 36.0365 25.5938 35.823 25.5938ZM35.823 23.3281H35.0574C34.8438 23.3281 34.672 23.1562 34.672 22.9479C34.672 22.7396 34.8438 22.5677 35.0574 22.5677H35.823C36.0365 22.5677 36.2084 22.7396 36.2084 22.9479C36.2084 23.1562 36.0365 23.3281 35.823 23.3281Z" fill="#38B6FF"/>
<path d="M16.1825 26.3489C16.1825 26.5468 16.1408 26.7395 16.0627 26.927C15.9845 27.1145 15.8752 27.276 15.7293 27.4166C15.5835 27.5573 15.4168 27.6666 15.2293 27.7448C15.0418 27.8229 14.8439 27.8593 14.6408 27.8593C14.4377 27.8593 14.2397 27.8229 14.0522 27.7448C13.8595 27.6666 13.6929 27.5573 13.5522 27.4166C13.4064 27.276 13.2918 27.1145 13.2137 26.927C13.1356 26.7395 13.0991 26.5468 13.0991 26.3489C13.0991 26.1458 13.1356 25.9531 13.2137 25.7708C13.2918 25.5833 13.4064 25.4218 13.5522 25.2812C13.6929 25.1406 13.8595 25.0312 14.0522 24.9531C14.2397 24.875 14.4377 24.8385 14.6408 24.8385C14.8439 24.8385 15.0418 24.875 15.2293 24.9531C15.4168 25.0312 15.5835 25.1406 15.7293 25.2812C15.8752 25.4218 15.9845 25.5833 16.0627 25.7708C16.1408 25.9531 16.1825 26.1458 16.1825 26.3489Z" fill="#38B6FF"/>
<path d="M16.1824 28.026V29.8073C17.5365 29.224 18.4897 27.8958 18.4897 26.349C18.4897 24.8021 17.5365 23.474 16.1824 22.8906V24.6719C16.6511 25.0885 16.9532 25.6823 16.9532 26.349C16.9532 27.0156 16.6511 27.6094 16.1824 28.026Z" fill="#38B6FF"/>
<path d="M15.4115 24.2188V22.6459C15.1615 22.599 14.9011 22.5677 14.6407 22.5677C14.3751 22.5677 14.1199 22.5938 13.8699 22.6459V24.2188C14.1095 24.1355 14.3699 24.0834 14.6407 24.0834C14.9115 24.0834 15.1667 24.1355 15.4115 24.2188Z" fill="#38B6FF"/>
<path d="M13.8699 28.4791V30.052C14.1199 30.0989 14.3751 30.1302 14.6407 30.1302C14.9011 30.1302 15.1615 30.0989 15.4115 30.052V28.4791C15.1667 28.5625 14.9115 28.6145 14.6407 28.6145C14.3699 28.6145 14.1095 28.5625 13.8699 28.4791Z" fill="#38B6FF"/>
<path d="M5.0105 39.1979H42.7605C43.3959 39.1979 43.9167 38.6875 43.9167 38.0625V13.8802C43.9167 13.6614 43.849 13.4531 43.7345 13.276L41.0105 14.7604C40.8334 14.8541 40.6407 14.9062 40.448 14.9062C40.2553 14.9062 40.0626 14.8541 39.8855 14.7604L36.1876 12.7448H5.0105C4.37508 12.7448 3.85425 13.2552 3.85425 13.8802V17.3489C4.30216 17.5052 4.62508 17.9218 4.62508 18.4114V22.1927C4.62508 22.6823 4.30216 23.0989 3.85425 23.2552V29.4427C4.30216 29.5989 4.62508 30.0156 4.62508 30.5052V34.2864C4.62508 34.776 4.30216 35.1927 3.85425 35.3489V38.0625C3.85425 38.6875 4.37508 39.1979 5.0105 39.1979ZM6.93758 16.901C6.93758 16.276 7.45321 15.7656 8.09383 15.7656H40.448C41.0834 15.7656 41.6042 16.276 41.6042 16.901V35.7968C41.6042 36.4218 41.0834 36.927 40.448 36.927H8.09383C7.45321 36.927 6.93758 36.4218 6.93758 35.7968V16.901Z" fill="#38B6FF"/>
<mask id="mask3_17_421" style="mask-type:luminance" maskUnits="userSpaceOnUse" x="33" y="0" width="15" height="15">
<path d="M33.6929 0H47.0002V14.2083H33.6929V0Z" fill="white"/>
</mask>
<g mask="url(#mask3_17_421)">
<path d="M46.7972 3.41138L40.6357 0.052002C40.5785 0.0207526 40.5107 0.00512695 40.4482 0.00512695C40.3857 0.00512695 40.318 0.0207526 40.2607 0.052002L34.0993 3.41138C33.9743 3.47908 33.9014 3.60408 33.9014 3.74471V10.4114C33.9014 10.5468 33.9743 10.677 34.0993 10.7395L40.2607 14.0989C40.3805 14.1666 40.516 14.1666 40.6357 14.0989L46.7972 10.7395C46.9222 10.677 46.9951 10.5468 46.9951 10.4114V3.74471C46.9951 3.60408 46.9222 3.47908 46.7972 3.41138ZM45.4535 8.58846C45.4535 8.79679 45.2816 8.96346 45.068 8.96346C44.8597 8.96346 44.6826 8.79679 44.6826 8.58846V5.56242C44.6826 5.35409 44.8597 5.18742 45.068 5.18742C45.2816 5.18742 45.4535 5.35409 45.4535 5.56242V8.58846Z" fill="#38B6FF"/>
</g>
<path d="M8.09391 36.1718H40.4481C40.6616 36.1718 40.8335 36.0052 40.8335 35.7968V16.901C40.8335 16.6927 40.6616 16.526 40.4481 16.526H8.09391C7.88037 16.526 7.7085 16.6927 7.7085 16.901V35.7968C7.7085 36.0052 7.88037 36.1718 8.09391 36.1718ZM26.1981 19.1666C26.1981 18.9583 26.37 18.7916 26.5783 18.7916H38.1356C38.3491 18.7916 38.521 18.9583 38.521 19.1666V33.526C38.521 33.7395 38.3491 33.9062 38.1356 33.9062H26.5783C26.37 33.9062 26.1981 33.7395 26.1981 33.526V19.1666ZM14.6408 21.8125C17.1877 21.8125 19.2606 23.8489 19.2606 26.3489C19.2606 28.8489 17.1877 30.8854 14.6408 30.8854C12.0887 30.8854 10.0158 28.8489 10.0158 26.3489C10.0158 23.8489 12.0887 21.8125 14.6408 21.8125Z" fill="#38B6FF"/>
<path d="M13.0991 29.8073V28.026C12.6304 27.6094 12.3283 27.0156 12.3283 26.349C12.3283 25.6823 12.6304 25.0885 13.0991 24.6719V22.8906C11.7397 23.474 10.7866 24.8021 10.7866 26.349C10.7866 27.8958 11.7397 29.224 13.0991 29.8073Z" fill="#38B6FF"/>
</svg>
