<svg width="47" height="43" viewBox="0 0 47 43" fill="none" xmlns="http://www.w3.org/2000/svg">
<mask id="mask0_17_335" style="mask-type:luminance" maskUnits="userSpaceOnUse" x="3" y="0" width="41" height="5">
<path d="M3.66699 0H43.667V4.15898H3.66699V0Z" fill="white"/>
</mask>
<g mask="url(#mask0_17_335)">
<path d="M6.31283 3.85887C5.39616 3.85887 4.56283 3.23783 4.3597 2.37752C4.11491 1.44595 4.67741 0.432928 5.63054 0.117315C5.64096 0.112223 5.65137 0.112224 5.65658 0.107133C6.06283 0.000232125 6.46908 0.000232125 6.82845 0.00532235C6.94304 0.00532235 7.05241 0.0104126 7.167 0.00532235C12.2399 0.0104126 17.2972 0.0104129 22.3545 0.0104129C28.3753 0.00532268 34.5993 0.00532301 40.7243 0.0155035C41.2712 0.000232775 41.8024 0.234397 42.1878 0.651823C42.5785 1.07943 42.7555 1.62921 42.6774 2.16372C42.6253 2.64732 42.3753 3.0902 41.9691 3.4109C41.5576 3.7367 41.0368 3.89451 40.5264 3.85378C35.6618 3.85378 30.7972 3.85378 25.9326 3.85378C19.4482 3.85378 12.9587 3.85378 6.47429 3.85378C6.417 3.85887 6.36491 3.85887 6.31283 3.85887ZM5.96387 1.11506C5.55762 1.2576 5.2972 1.72084 5.40658 2.12299C5.40658 2.12808 5.40658 2.13827 5.41179 2.14336C5.50033 2.54551 5.95346 2.85094 6.39616 2.81022C6.417 2.80513 6.43262 2.80513 6.44825 2.80513C12.943 2.80513 19.4378 2.80513 25.9326 2.80513C30.8076 2.80513 35.6774 2.80513 40.5472 2.80513C40.568 2.80513 40.5889 2.80513 40.6045 2.80513C40.8441 2.83058 41.0889 2.75422 41.292 2.59642C41.4743 2.44879 41.5837 2.25535 41.6045 2.05173C41.6045 2.04155 41.6097 2.03136 41.6097 2.02118C41.6462 1.7972 41.5628 1.54267 41.3857 1.35432C41.2087 1.16088 40.9795 1.05398 40.7503 1.06416C40.7451 1.06416 40.7399 1.06416 40.7295 1.06416C34.6045 1.05398 28.3753 1.05398 22.3493 1.05907C17.292 1.05907 12.2347 1.05907 7.17741 1.05398C7.06804 1.05907 6.93783 1.05398 6.81283 1.05398C6.50554 1.04889 6.21387 1.04889 5.96387 1.11506Z" fill="#FF0000"/>
</g>
<mask id="mask1_17_335" style="mask-type:luminance" maskUnits="userSpaceOnUse" x="0" y="4" width="15" height="18">
<path d="M0 4.15903H14.3333V21.1004H0V4.15903Z" fill="white"/>
</mask>
<g mask="url(#mask1_17_335)">
<path d="M4.37988 20.6117C4.04134 20.6117 3.69759 20.5913 3.36426 20.5404C1.83301 20.2706 0.567382 19.1201 0.0309245 17.5319C0.0152991 17.4759 0.00488281 17.425 0.00488281 17.369V16.3509C0.00488281 16.2745 0.0205075 16.1981 0.0569661 16.1269C0.989258 14.1925 1.8903 12.2021 2.7653 10.2727C3.62467 8.37396 4.51009 6.4141 5.43197 4.50005C5.52051 4.31679 5.71322 4.19971 5.92155 4.19971C7.55176 4.19971 9.18717 4.19971 10.8174 4.19971H13.2653C13.4268 4.19971 13.583 4.27097 13.6872 4.39315C13.7861 4.51532 13.8278 4.67822 13.7913 4.83094C13.3226 6.98933 12.8226 9.16809 12.333 11.2807C11.9059 13.1438 11.4632 15.068 11.0413 16.9668C11.0413 16.9821 11.0361 16.9974 11.0309 17.0126C11.0153 17.0585 11.0049 17.1094 10.9945 17.1603C10.932 17.4097 10.8434 17.7762 10.484 18.0155C10.1611 18.2598 9.82259 18.4889 9.49447 18.7129C9.2653 18.8707 9.04134 19.0234 8.81738 19.1812C7.51009 20.1128 5.93717 20.6117 4.37988 20.6117Z" fill="#FF0000"/>
</g>
<path d="M17.1093 20.6322C16.2863 20.6322 15.4634 20.4896 14.7082 20.1995C13.8749 19.8788 13.2811 19.3137 12.703 18.7639C12.3332 18.4076 11.9843 18.0767 11.5936 17.8222C11.4061 17.7051 11.3176 17.4913 11.3593 17.2826C11.8593 14.8748 12.427 12.4415 12.9738 10.0845C13.3853 8.29776 13.8124 6.45498 14.2082 4.63765C14.2603 4.39839 14.4738 4.22531 14.7238 4.22022C16.5988 4.18968 18.4999 4.19477 20.3436 4.19986C21.1561 4.20495 21.9686 4.21004 22.7759 4.20495C22.9218 4.20495 23.0572 4.26095 23.1613 4.36276C23.2603 4.45948 23.3176 4.59183 23.3176 4.73437C23.3124 6.23099 23.3176 7.75816 23.3228 9.23442C23.3332 11.9171 23.3436 14.6966 23.2915 17.4302C23.2915 17.6237 23.177 17.8018 22.9947 17.8884C22.5311 18.1174 22.1301 18.4636 21.703 18.8301C21.2186 19.2526 20.7186 19.6853 20.078 19.9806C19.1561 20.4133 18.1301 20.6322 17.1093 20.6322Z" fill="#FF0000"/>
<path d="M29.906 20.632C28.9946 20.632 28.0623 20.4539 27.1821 20.0975C26.4373 19.8125 25.8644 19.3187 25.3123 18.8402C24.88 18.4686 24.479 18.1173 24.0102 17.8781C23.8331 17.7915 23.7185 17.6184 23.7185 17.425C23.6665 14.4979 23.6717 11.525 23.6821 8.65397C23.6821 7.3457 23.6873 6.03743 23.6821 4.73424C23.6821 4.59171 23.7394 4.45935 23.8383 4.36263C23.9425 4.26082 24.0779 4.20483 24.2185 4.20483H24.2238C25.0675 4.20992 25.906 4.20483 26.7498 4.19974C28.5623 4.19465 30.4321 4.18956 32.2706 4.22519C32.5206 4.23028 32.7342 4.40336 32.7863 4.63752C33.1925 6.50576 33.63 8.39944 34.0519 10.232C34.5831 12.5381 35.1352 14.9255 35.63 17.2774C35.6769 17.4912 35.5831 17.705 35.3956 17.8221C35.0102 18.0715 34.6717 18.3973 34.3123 18.7485C33.8019 19.2423 33.2706 19.7565 32.5467 20.0772C31.7446 20.4488 30.8383 20.632 29.906 20.632Z" fill="#FF0000"/>
<mask id="mask2_17_335" style="mask-type:luminance" maskUnits="userSpaceOnUse" x="33" y="4" width="14" height="18">
<path d="M33 4.15903H47V21.1004H33V4.15903Z" fill="white"/>
</mask>
<g mask="url(#mask2_17_335)">
<path d="M42.667 20.6168C42.1982 20.6168 41.6982 20.5659 41.1722 20.4641C39.2816 20.1434 37.7399 18.9319 36.3805 17.8679L36.3076 17.8119C36.2139 17.7407 36.1514 17.6389 36.1253 17.5269C35.4899 14.9561 34.8962 12.3345 34.3232 9.79432C33.9587 8.17553 33.5785 6.50074 33.193 4.85649C33.1566 4.70377 33.193 4.54087 33.292 4.4187C33.3962 4.29143 33.5472 4.22017 33.7087 4.21508C35.4743 4.18962 37.266 4.19471 38.9951 4.1998C39.6878 4.20489 40.3805 4.20489 41.0732 4.20489C41.2868 4.20489 41.4743 4.32198 41.5628 4.50524C42.4587 6.37347 43.3285 8.29261 44.167 10.1456C45.0576 12.1156 45.9847 14.162 46.943 16.1422C46.9743 16.2084 46.9951 16.2848 46.9951 16.3662V17.3843C46.9951 17.4505 46.9795 17.5167 46.9535 17.5778C46.6149 18.3923 46.0941 19.4002 45.0785 19.9805C44.417 20.403 43.6097 20.6168 42.667 20.6168Z" fill="#FF0000"/>
</g>
<mask id="mask3_17_335" style="mask-type:luminance" maskUnits="userSpaceOnUse" x="0" y="17" width="47" height="26">
<path d="M0 17.1909H47V43H0V17.1909Z" fill="white"/>
</mask>
<g mask="url(#mask3_17_335)">
<path d="M1.48405 42.9847C1.03613 42.9847 0.593423 42.8167 0.197591 42.496C0.0725911 42.3942 0.00488281 42.2517 0.00488281 42.0939V41.3965C0.00488281 41.2336 0.0830082 41.0808 0.213216 40.979C0.926758 40.4496 1.74967 40.4903 2.47363 40.5311C2.60905 40.5362 2.73926 40.5412 2.86947 40.5463C2.87988 37.5582 2.87467 34.5242 2.87467 31.592C2.86947 28.273 2.86947 24.8471 2.88509 21.4771C2.88509 21.3295 2.94759 21.192 3.05176 21.0953C3.16113 20.9935 3.30697 20.9426 3.45801 20.9528C5.32259 21.0699 7.10905 20.6677 8.49967 19.8176C8.49967 19.8125 8.50488 19.8125 8.51009 19.8074C8.8278 19.6242 9.12988 19.4053 9.44759 19.1711C9.94238 18.8046 10.4528 18.4279 11.0726 18.1784C11.2601 18.1021 11.4736 18.1326 11.6299 18.2599C11.9215 18.4991 12.1924 18.7638 12.4528 19.0133C12.9163 19.4663 13.359 19.8889 13.8903 20.1841C15.1872 20.9477 16.9111 21.1615 18.7653 20.8052C19.9059 20.5812 21.0361 19.9601 22.0361 19.0031C22.0465 18.9929 22.057 18.9827 22.0674 18.9726C22.1247 18.9318 22.182 18.8809 22.2393 18.8249C22.6143 18.4991 23.3955 17.8119 24.2236 18.4126C24.5361 18.6417 24.8278 18.8911 25.1143 19.1304C25.6872 19.6242 26.234 20.0874 26.8903 20.3572C28.8538 21.2073 31.1507 21.1869 32.8903 20.3012C33.5309 19.9907 34.0466 19.4969 34.5934 18.9776C34.8382 18.7384 35.0934 18.494 35.3643 18.265C35.5205 18.1326 35.7393 18.097 35.9268 18.1733C36.5049 18.4126 36.9841 18.7638 37.4528 19.1049C37.5934 19.2118 37.7341 19.3136 37.8799 19.4154C39.4216 20.5557 41.4268 21.0953 43.5413 20.9528C43.6872 20.9426 43.833 20.9935 43.9424 21.0902C44.0518 21.192 44.1143 21.3295 44.1195 21.4771C44.1299 24.7809 44.1299 28.1457 44.1247 31.3986C44.1247 34.3969 44.1195 37.492 44.1351 40.5463C44.2653 40.5463 44.4059 40.5362 44.5466 40.5311C45.2809 40.4903 46.1143 40.4445 46.807 41.0198C46.9268 41.1165 46.9945 41.2641 46.9945 41.4168V42.1142C46.9945 42.3026 46.8903 42.4757 46.7236 42.5724C46.682 42.5978 46.6403 42.6233 46.5934 42.6487C46.3434 42.7964 45.9945 43 45.5518 42.9745H44.7132C42.9372 42.9796 41.0934 42.9847 39.2861 42.9694C38.9945 42.9694 38.7549 42.7404 38.7497 42.4553C38.7341 41.6917 38.7393 40.923 38.7445 40.1747C38.7549 39.3195 38.7601 38.4388 38.7341 37.5785C38.7341 37.5582 38.7341 37.5378 38.7341 37.5175C38.7393 37.4869 38.7341 37.4716 38.7132 37.4513C38.6663 37.4105 38.5674 37.3749 38.4632 37.3851C38.4424 37.3902 38.4163 37.3851 38.3955 37.3902C36.432 37.3851 34.4684 37.3851 32.5049 37.3902C30.333 37.3902 28.1663 37.3902 25.9997 37.3851C25.9893 37.3851 25.984 37.3851 25.9736 37.3851C25.6924 37.3698 25.5518 37.4156 25.5101 37.4411C25.4528 38.3727 25.4632 39.3246 25.4736 40.2409C25.4788 40.9688 25.4893 41.7172 25.4684 42.4604C25.458 42.7404 25.2236 42.9643 24.9372 42.9694C24.1038 42.9898 23.2132 42.9898 22.0674 42.9694C21.7705 42.9643 21.5361 42.7353 21.5361 42.4502C21.5205 38.0723 21.5257 33.6283 21.5257 29.3267C21.5309 27.5247 21.5309 25.7277 21.5309 23.9257V23.89C21.5257 23.773 21.5205 23.5388 21.4788 23.4573C21.1872 23.4013 20.8643 23.4064 20.5309 23.4115C20.3799 23.4115 20.2288 23.4166 20.083 23.4115C16.734 23.4217 13.3174 23.4166 10.0153 23.4115H8.76009C8.63509 23.4166 8.38509 23.4217 8.30176 23.4624C8.23405 23.8137 8.24447 24.1904 8.24967 24.5824C8.25488 24.7758 8.26009 24.9743 8.25488 25.1729C8.25488 26.8426 8.25488 28.5224 8.25488 30.2023C8.26009 34.2188 8.26009 38.3676 8.24967 42.4502C8.24967 42.7353 8.01009 42.9694 7.71842 42.9694C6.56738 42.9796 5.39551 42.9796 4.27051 42.9796C3.3903 42.9745 2.51009 42.9745 1.63509 42.9796C1.58301 42.9847 1.53093 42.9847 1.48405 42.9847ZM1.0778 41.8241C1.21322 41.8953 1.37468 41.9513 1.55176 41.9361C1.56738 41.931 1.58822 41.931 1.60384 41.931C2.48926 41.9259 3.37988 41.931 4.2653 41.931C5.21842 41.931 6.19759 41.931 7.17155 41.9259C7.18197 38.0112 7.18197 34.0457 7.17676 30.2023C7.17676 28.5224 7.17676 26.8426 7.17676 25.1627C7.18197 24.9743 7.17676 24.7911 7.17155 24.6027C7.16113 24.1497 7.15593 23.6762 7.25488 23.1977C7.26009 23.1824 7.2653 23.1621 7.27051 23.1468C7.51009 22.3883 8.33822 22.373 8.73405 22.3629H10.0153C13.3174 22.368 16.7288 22.373 20.0882 22.3629C20.2341 22.368 20.3695 22.3629 20.5101 22.3629C20.9111 22.3527 21.3278 22.3476 21.7601 22.4443C21.7757 22.4443 21.7913 22.4494 21.8018 22.4545C22.5726 22.6887 22.5934 23.4828 22.6038 23.8646V23.9104C22.6038 25.7277 22.6038 27.5247 22.5986 29.3267C22.5986 33.4552 22.5934 37.7211 22.6091 41.931C23.2757 41.9361 23.8591 41.9361 24.3955 41.931C24.4059 41.371 24.4007 40.8009 24.3955 40.2511C24.3851 39.3144 24.3747 38.3421 24.4268 37.38C24.4476 37.1153 24.6143 36.2804 26.0049 36.3364C28.1716 36.3415 30.333 36.3415 32.4997 36.3415C34.4528 36.3364 36.4111 36.3364 38.3643 36.3415C38.7705 36.3059 39.1716 36.4332 39.4528 36.6979C39.7028 36.9269 39.8226 37.2375 39.807 37.5734C39.8278 38.4439 39.8226 39.3297 39.8174 40.1798C39.8122 40.755 39.8122 41.3405 39.8174 41.9259C41.4476 41.9361 43.1038 41.931 44.708 41.931L45.5674 41.9259C45.583 41.9259 45.5934 41.9259 45.6091 41.931C45.6924 41.9361 45.7966 41.8851 45.9163 41.819V41.6917C45.5674 41.5237 45.1143 41.5492 44.6038 41.5746C44.2497 41.595 43.8851 41.6154 43.5205 41.5695C43.2549 41.5339 43.057 41.315 43.0518 41.0503C43.0413 37.8331 43.0413 34.5598 43.0466 31.3935C43.0466 28.3239 43.0518 25.1525 43.0361 22.0218C40.8799 22.0523 38.833 21.4364 37.2393 20.2605C37.0986 20.1637 36.9476 20.0518 36.7966 19.9398C36.4632 19.6954 36.1455 19.4613 35.807 19.2831C35.6559 19.4256 35.4997 19.5732 35.3434 19.7209C34.7601 20.2808 34.1611 20.851 33.3747 21.2379C31.3591 22.2611 28.7028 22.2916 26.458 21.3193C25.6507 20.9833 25.0153 20.4437 24.4007 19.9194C24.1195 19.6801 23.8538 19.4562 23.5726 19.2474C23.484 19.1864 23.3434 19.2678 22.958 19.6038C22.8955 19.6598 22.8278 19.7158 22.7705 19.7667C21.6247 20.8561 20.3122 21.5687 18.9736 21.8284C16.8538 22.2407 14.8538 21.9811 13.3486 21.0851C12.7028 20.7339 12.1872 20.2401 11.6924 19.7565C11.5205 19.5936 11.3538 19.4358 11.1872 19.2831C10.8122 19.4765 10.458 19.7361 10.0934 20.0059C9.7653 20.2452 9.43197 20.4946 9.06217 20.7084C7.60905 21.5993 5.85384 22.0473 3.9528 22.0218C3.94238 25.2136 3.94759 28.4512 3.94759 31.592C3.94759 34.6922 3.9528 37.8992 3.94238 41.0554C3.93718 41.3201 3.73405 41.5441 3.46322 41.5746C3.10905 41.6103 2.75488 41.595 2.41634 41.5746C1.90072 41.5492 1.44238 41.5237 1.0778 41.6866V41.8241ZM39.9476 35.9954C39.9007 35.9954 39.8486 35.9954 39.7966 35.9903C37.7549 35.9903 35.7132 35.9903 33.6663 35.9903C30.583 35.9903 27.4997 35.9903 24.4163 35.9903C24.0153 36.0259 23.609 35.8987 23.3278 35.639C23.0726 35.4049 22.9476 35.0893 22.9684 34.7533C22.958 32.8138 22.958 30.8386 22.9632 28.9348C22.9632 27.2905 22.9632 25.5954 22.958 23.9308C22.9476 23.6457 22.9216 22.7447 23.7288 22.4596C23.7497 22.4494 23.7705 22.4443 23.7913 22.4392C24.208 22.3476 24.6038 22.3527 24.9893 22.3629C25.1507 22.368 25.307 22.368 25.4528 22.3629L27.5413 22.368C31.5778 22.368 35.6143 22.368 39.6507 22.3629C39.6559 22.3629 39.6663 22.3629 39.6768 22.3629C39.7236 22.368 39.7705 22.368 39.8174 22.368C40.1091 22.373 40.5518 22.3832 40.8903 22.7141C41.2341 23.0399 41.2445 23.4726 41.2497 23.7577C41.2549 23.8035 41.2549 23.8493 41.2549 23.8951C41.2549 23.9053 41.2601 23.9206 41.2549 23.9308C41.2497 25.5954 41.2497 27.2956 41.2549 28.9348C41.2549 30.8386 41.2549 32.8138 41.2445 34.7584C41.2653 35.0943 41.1351 35.41 40.8799 35.6441C40.6299 35.8732 40.2913 35.9954 39.9476 35.9954ZM37.4736 34.9416C38.2601 34.9416 39.0466 34.9416 39.833 34.9416C39.8591 34.9416 39.8799 34.9416 39.9059 34.9467C39.9893 34.9569 40.0882 34.9314 40.1403 34.8805C40.1716 34.8551 40.1716 34.8347 40.1716 34.8144C40.1663 34.7991 40.1663 34.7838 40.1663 34.7686C40.182 32.824 40.182 30.8488 40.1768 28.9348C40.1768 27.2956 40.1768 25.6056 40.182 23.9409C40.1768 23.89 40.1768 23.834 40.1768 23.778C40.1768 23.6915 40.1716 23.5032 40.1403 23.4675C40.1351 23.4624 40.1299 23.4573 40.1247 23.4522C40.0934 23.4217 39.8955 23.4166 39.7966 23.4166C39.7393 23.4166 39.6872 23.4115 39.6351 23.4115C35.6038 23.4166 31.5726 23.4166 27.5413 23.4115H25.4736C25.3122 23.4166 25.1351 23.4166 24.9684 23.4115C24.6507 23.4013 24.3538 23.3963 24.0882 23.4472C24.0726 23.4675 24.0257 23.5642 24.0309 23.9104C24.0413 25.5954 24.0413 27.2905 24.0361 28.9348C24.0361 30.8437 24.0309 32.824 24.0466 34.7686C24.0466 34.7838 24.0466 34.7991 24.0466 34.8144C24.0413 34.8398 24.0466 34.8551 24.0674 34.8755C24.1143 34.9213 24.2132 34.9569 24.3122 34.9416C24.3382 34.9416 24.3591 34.9314 24.3851 34.9416C27.4788 34.9416 30.5726 34.9416 33.6663 34.9416C34.9372 34.9416 36.2028 34.9416 37.4736 34.9416Z" fill="#FF0000"/>
</g>
<mask id="mask4_17_335" style="mask-type:luminance" maskUnits="userSpaceOnUse" x="7" y="23" width="16" height="20">
<path d="M7.66699 23.7068H22.3337V43H7.66699V23.7068Z" fill="white"/>
</mask>
<g mask="url(#mask4_17_335)">
<path d="M15.3232 42.9796C13.4326 42.9796 11.4014 42.9745 9.15658 42.9745C8.8597 42.9745 8.62012 42.7403 8.62012 42.4502C8.6097 36.8964 8.6097 30.9557 8.62012 24.2922C8.62012 24.002 8.8597 23.7678 9.15658 23.7678C12.9639 23.7576 16.8232 23.7576 20.6253 23.7678C20.9222 23.7678 21.167 24.002 21.167 24.2922C21.1722 31.3731 21.1722 37.1407 21.167 42.4502C21.1618 42.7403 20.9222 42.9745 20.6253 42.9745C18.9587 42.9745 17.2139 42.9796 15.3232 42.9796ZM9.69303 41.9258C13.7035 41.9309 17.0316 41.9309 20.0889 41.9258C20.0941 36.8913 20.0941 31.424 20.0889 24.8165C16.6357 24.8063 13.1462 24.8063 9.69303 24.8165C9.68783 31.0575 9.68783 36.6673 9.69303 41.9258Z" fill="#FF0000"/>
</g>
<path d="M32.4948 34.5955C29.9167 34.5955 27.3854 34.5904 24.9375 34.5904C24.6406 34.5904 24.401 34.3562 24.401 34.066C24.3906 30.7266 24.3958 27.4025 24.401 24.2922C24.401 24.002 24.6406 23.7679 24.9375 23.7679C30.5469 23.7628 35.1042 23.7628 39.276 23.7679C39.5729 23.7679 39.8125 24.002 39.8125 24.2871C39.8229 27.5349 39.8229 30.8234 39.8125 34.066C39.8125 34.3511 39.5729 34.5853 39.276 34.5853C37.0052 34.5904 34.7344 34.5955 32.4948 34.5955Z" fill="#FF0000"/>
<mask id="mask5_17_335" style="mask-type:luminance" maskUnits="userSpaceOnUse" x="25" y="36" width="15" height="7">
<path d="M25 36.7386H39.6667V43H25V36.7386Z" fill="white"/>
</mask>
<g mask="url(#mask5_17_335)">
<path d="M31.8493 42.9796C29.9482 42.9796 28.1305 42.9745 26.3753 42.9694C26.0785 42.9694 25.8389 42.7404 25.8389 42.4502C25.8232 41.0605 25.8232 39.6504 25.8389 38.2607C25.8389 37.9756 26.0785 37.7414 26.3753 37.7414C30.5785 37.7313 34.3285 37.7313 37.8441 37.7414C38.1357 37.7414 38.3753 37.9756 38.3805 38.2607C38.3962 39.6606 38.3857 41.0757 38.3805 42.4502C38.3805 42.7353 38.141 42.9694 37.8441 42.9694C35.7399 42.9745 33.7503 42.9796 31.8493 42.9796ZM26.9066 41.9259C30.1149 41.931 33.5316 41.931 37.3076 41.9259C37.3128 40.8925 37.318 39.8336 37.3076 38.7901C34.0993 38.7799 30.6878 38.7799 26.9118 38.7901C26.9014 39.8336 26.9014 40.8823 26.9066 41.9259Z" fill="#FF0000"/>
</g>
</svg>
