<svg id="Layer_1" data-name="Layer 1" xmlns="http://www.w3.org/2000/svg" viewBox="0 0 50 50"><defs><style>.cls-1{fill:#fff;}</style></defs><path class="cls-1" d="M50,17.9h-.1a3.2,3.2,0,0,1-3.1,2.5H38a3.1,3.1,0,0,1-.7-6.2h3l-.3-.4A18,18,0,0,0,27.6,6.4,18.6,18.6,0,0,0,11,12.5,17.4,17.4,0,0,0,7.6,18a3.1,3.1,0,0,1-4.7,1.6,3.1,3.1,0,0,1-1.2-3.7A25.1,25.1,0,0,1,10.9,4.3,24.5,24.5,0,0,1,23.1.1H27A24.3,24.3,0,0,1,42.9,7.6a2.7,2.7,0,0,1,.8.7c0-.1.1-.2.1-.4a3.2,3.2,0,0,1,3-2.6,3.1,3.1,0,0,1,3.1,2.4c0,.1.1.1.1.2Z" transform="translate(0)"/><path class="cls-1" d="M6.3,41.6c-.1.4-.1.8-.2,1.2A3.1,3.1,0,0,1,0,42V32.8a2.9,2.9,0,0,1,2.9-2.9h9.4a3.1,3.1,0,0,1,.2,6.1,22.5,22.5,0,0,1-2.6,0c.1.2.2.4.3.4a17.8,17.8,0,0,0,12.2,7.1A18.4,18.4,0,0,0,42.4,32a3,3,0,0,1,3.2-2.1,3,3,0,0,1,2.8,2.2,3.4,3.4,0,0,1-.1,2C44.9,42.2,39,47.5,30.4,49.3s-17.3-.6-23.8-7.5Z" transform="translate(0)"/></svg>