<svg width="47" height="41" viewBox="0 0 47 41" fill="none" xmlns="http://www.w3.org/2000/svg">
<g clip-path="url(#clip0_346_155)">
<path fill-rule="evenodd" clip-rule="evenodd" d="M8.60574 0.201368L0.0359951 18.2526C0.00338474 18.3198 -0.00694928 18.3956 0.0065043 18.4691C0.0199579 18.5425 0.0564933 18.6097 0.110768 18.6609L23.2556 40.9014C23.3213 40.9647 23.4089 41 23.5 41C23.5911 41 23.6786 40.9647 23.7444 40.9014L46.8892 18.6623C46.9435 18.6111 46.98 18.5439 46.9935 18.4705C47.0069 18.397 46.9966 18.3212 46.964 18.254L38.3942 0.202757C38.3666 0.142133 38.3221 0.0907767 38.2661 0.0548261C38.2101 0.0188756 38.145 -0.000148713 38.0785 2.68719e-05H8.92422C8.85742 -0.000806489 8.79181 0.0177596 8.7353 0.0534854C8.67879 0.0892112 8.6338 0.140571 8.60574 0.201368Z" fill="#50AF95"/>
<path fill-rule="evenodd" clip-rule="evenodd" d="M26.4736 20.1061C26.3074 20.1186 25.4489 20.17 23.5339 20.17C22.0108 20.17 20.9293 20.1242 20.5499 20.1061C14.6637 19.8464 10.2701 18.8189 10.2701 17.5886C10.2701 16.3584 14.6637 15.3322 20.5499 15.0684V19.0827C20.9349 19.1105 22.0371 19.1758 23.5602 19.1758C25.388 19.1758 26.3033 19.0994 26.468 19.0841V15.0712C32.3418 15.3336 36.7257 16.3612 36.7257 17.5886C36.7257 18.8161 32.3432 19.8437 26.468 20.1047L26.4736 20.1061ZM26.4736 14.656V11.0638H34.6708V5.58594H12.3527V11.0638H20.5486V14.6546C13.8869 14.9615 8.87714 16.2848 8.87714 17.8705C8.87714 19.4563 13.8869 20.7782 20.5486 21.0864V32.5976H26.4722V21.0823C33.1186 20.7754 38.1201 19.4535 38.1201 17.8691C38.1201 16.2848 33.1228 14.9629 26.4722 14.6546L26.4736 14.656Z" fill="white"/>
</g>
<defs>
<clipPath id="clip0_346_155">
<rect width="47" height="41" fill="white"/>
</clipPath>
</defs>
</svg>
